<svg xmlns="http://www.w3.org/2000/svg" viewBox="0 0 278 491"><defs><style>.cls-1{fill:#f3f3f3;}.cls-2{fill:none;stroke:#231f20;stroke-miterlimit:10;stroke-width:5px;}.cls-3,.cls-4,.cls-5{isolation:isolate;}.cls-3,.cls-5{font-size:32.81px;fill:#231f20;font-family:Arial-BoldMT, Arial;font-weight:700;}.cls-5{letter-spacing:-0.06em;}</style></defs><title>PRINTTTTTT</title><g id="Layer_2" data-name="Layer 2"><g id="Layer_1-2" data-name="Layer 1"><g id="Layer_2-2" data-name="Layer 2"><g id="Layer_1-2-2" data-name="Layer 1-2"><rect class="cls-1" width="278" height="491"/><rect class="cls-2" x="4.16" y="3.39" width="269.33" height="482.67"/><rect class="cls-2" x="21.48" y="16.72" width="234.67" height="454.67"/><rect class="cls-2" x="66.82" y="70.06" width="141.33" height="328"/><line class="cls-2" x1="256.15" y1="266.22" x2="208.15" y2="266.22"/><line class="cls-2" x1="256.15" y1="374.22" x2="208.15" y2="374.22"/><line class="cls-2" x1="256.15" y1="177.22" x2="208.15" y2="177.22"/><line class="cls-2" x1="256.15" y1="87.22" x2="208.15" y2="87.22"/><line class="cls-2" x1="67.15" y1="374.22" x2="19.15" y2="374.22"/><line class="cls-2" x1="67.15" y1="266.22" x2="19.15" y2="266.22"/><line class="cls-2" x1="67.15" y1="176.22" x2="19.15" y2="176.22"/><line class="cls-2" x1="67.15" y1="86.22" x2="19.15" y2="86.22"/><polygon class="cls-2" points="156.65 70.06 194.65 176.22 83.65 176.22 119.65 70.06 156.65 70.06"/><line class="cls-2" x1="208.15" y1="471.39" x2="173.65" y2="398.06"/><line class="cls-2" x1="64.65" y1="471.39" x2="98.65" y2="398.06"/><polyline class="cls-2" points="208.15 391.23 194.65 347.23 176.65 347.23"/><polyline class="cls-2" points="66.82 398.06 83.65 347.23 112.65 347.23"/><polyline class="cls-2" points="169.65 334.23 197.65 334.23 197.65 188.22 169.65 188.22"/><polyline class="cls-2" points="163.65 216.22 171.65 216.22 197.65 188.22"/><polyline class="cls-2" points="163.65 280.23 183.65 280.23 197.65 321.23"/><polyline class="cls-2" points="117.65 334.23 81.65 334.23 83.65 188.22 117.65 188.22"/><polyline class="cls-2" points="115.65 216.22 107.65 216.22 83.65 193.22"/><polyline class="cls-2" points="115.65 280.23 98.65 280.23 81.65 321.23"/><text class="cls-3" transform="translate(225.83 44.48) rotate(90)">1</text><text class="cls-3" transform="translate(225.83 131.87) rotate(90)">2</text><text class="cls-3" transform="translate(225.83 222.06) rotate(90)">3</text><text class="cls-3" transform="translate(225.83 306.72) rotate(90)">4</text><text class="cls-3" transform="translate(224.83 413.08) rotate(90)">5</text><text class="cls-3" transform="translate(131.49 428.08) rotate(90)">6</text><text class="cls-3" transform="translate(30.82 413.08) rotate(90)">7</text><text class="cls-3" transform="translate(32.82 306.72) rotate(90)">8</text><text class="cls-3" transform="translate(32.82 213.39) rotate(90)">9</text><text class="cls-3" transform="translate(32.82 102.72) rotate(90)">10</text><g class="cls-4"><text class="cls-5" transform="translate(33.82 26.72) rotate(90)">1</text><text class="cls-3" transform="translate(33.82 43.16) rotate(90)">1</text></g><text class="cls-3" transform="translate(131.49 25.72) rotate(90)">12</text><text class="cls-3" transform="translate(131.48 106.89) rotate(90)">13</text><text class="cls-3" transform="translate(131.48 185.56) rotate(90)">14</text><text class="cls-3" transform="translate(131.49 229.89) rotate(90)">15</text><text class="cls-3" transform="translate(131.48 282.67) rotate(90)">16</text><text class="cls-3" transform="translate(130.49 354.67) rotate(90)">17</text></g></g></g></g></svg>